<mxfile host="Electron" modified="2024-10-29T12:27:08.079Z" agent="Mozilla/5.0 (Windows NT 10.0; Win64; x64) AppleWebKit/537.36 (KHTML, like Gecko) draw.io/21.7.5 Chrome/114.0.5735.289 Electron/25.8.1 Safari/537.36" etag="UeO5Gohg-6YxWu1vuabC" version="21.7.5" type="device">
  <diagram name="PÃ¡gina-1" id="2BFQsm3I1nHPYKbcnvOe">
    <mxGraphModel dx="922" dy="861" grid="1" gridSize="10" guides="1" tooltips="1" connect="1" arrows="1" fold="1" page="1" pageScale="1" pageWidth="1169" pageHeight="827" math="0" shadow="0">
      <root>
        <mxCell id="0" />
        <mxCell id="1" parent="0" />
        <mxCell id="2pH5AYN5q7OZ5gWq26MX-1" value="Persona" style="rounded=0;whiteSpace=wrap;html=1;" vertex="1" parent="1">
          <mxGeometry x="525" y="120" width="120" height="60" as="geometry" />
        </mxCell>
        <mxCell id="2pH5AYN5q7OZ5gWq26MX-2" value="#codigo" style="ellipse;whiteSpace=wrap;html=1;aspect=fixed;" vertex="1" parent="1">
          <mxGeometry x="410" y="10" width="60" height="60" as="geometry" />
        </mxCell>
        <mxCell id="2pH5AYN5q7OZ5gWq26MX-3" value="nombre" style="ellipse;whiteSpace=wrap;html=1;aspect=fixed;" vertex="1" parent="1">
          <mxGeometry x="500" y="10" width="60" height="60" as="geometry" />
        </mxCell>
        <mxCell id="2pH5AYN5q7OZ5gWq26MX-4" value="apellidos" style="ellipse;whiteSpace=wrap;html=1;aspect=fixed;" vertex="1" parent="1">
          <mxGeometry x="584.5" y="10" width="60" height="60" as="geometry" />
        </mxCell>
        <mxCell id="2pH5AYN5q7OZ5gWq26MX-5" value="telefono" style="ellipse;whiteSpace=wrap;html=1;aspect=fixed;" vertex="1" parent="1">
          <mxGeometry x="670" y="10" width="60" height="60" as="geometry" />
        </mxCell>
        <mxCell id="2pH5AYN5q7OZ5gWq26MX-10" value="" style="endArrow=none;html=1;rounded=0;exitX=0;exitY=0;exitDx=0;exitDy=0;entryX=0.5;entryY=1;entryDx=0;entryDy=0;" edge="1" parent="1" source="2pH5AYN5q7OZ5gWq26MX-1" target="2pH5AYN5q7OZ5gWq26MX-2">
          <mxGeometry width="50" height="50" relative="1" as="geometry">
            <mxPoint x="720" y="150" as="sourcePoint" />
            <mxPoint x="770" y="100" as="targetPoint" />
          </mxGeometry>
        </mxCell>
        <mxCell id="2pH5AYN5q7OZ5gWq26MX-11" value="" style="endArrow=none;html=1;rounded=0;exitX=0.125;exitY=0;exitDx=0;exitDy=0;entryX=0.5;entryY=1;entryDx=0;entryDy=0;exitPerimeter=0;" edge="1" parent="1" source="2pH5AYN5q7OZ5gWq26MX-1" target="2pH5AYN5q7OZ5gWq26MX-3">
          <mxGeometry width="50" height="50" relative="1" as="geometry">
            <mxPoint x="555" y="110" as="sourcePoint" />
            <mxPoint x="470" y="60" as="targetPoint" />
          </mxGeometry>
        </mxCell>
        <mxCell id="2pH5AYN5q7OZ5gWq26MX-12" value="" style="endArrow=none;html=1;rounded=0;exitX=0.5;exitY=0;exitDx=0;exitDy=0;entryX=0.5;entryY=1;entryDx=0;entryDy=0;" edge="1" parent="1" source="2pH5AYN5q7OZ5gWq26MX-1" target="2pH5AYN5q7OZ5gWq26MX-4">
          <mxGeometry width="50" height="50" relative="1" as="geometry">
            <mxPoint x="610" y="120" as="sourcePoint" />
            <mxPoint x="600" y="70" as="targetPoint" />
          </mxGeometry>
        </mxCell>
        <mxCell id="2pH5AYN5q7OZ5gWq26MX-13" value="" style="endArrow=none;html=1;rounded=0;exitX=0.5;exitY=0;exitDx=0;exitDy=0;entryX=0;entryY=1;entryDx=0;entryDy=0;" edge="1" parent="1" target="2pH5AYN5q7OZ5gWq26MX-5">
          <mxGeometry width="50" height="50" relative="1" as="geometry">
            <mxPoint x="630" y="120" as="sourcePoint" />
            <mxPoint x="660" y="70" as="targetPoint" />
          </mxGeometry>
        </mxCell>
        <mxCell id="2pH5AYN5q7OZ5gWq26MX-16" value="" style="endArrow=none;html=1;rounded=0;exitX=0.5;exitY=1;exitDx=0;exitDy=0;" edge="1" parent="1" source="2pH5AYN5q7OZ5gWq26MX-1">
          <mxGeometry width="50" height="50" relative="1" as="geometry">
            <mxPoint x="650" y="140" as="sourcePoint" />
            <mxPoint x="585" y="240" as="targetPoint" />
          </mxGeometry>
        </mxCell>
        <mxCell id="2pH5AYN5q7OZ5gWq26MX-17" value="" style="triangle;whiteSpace=wrap;html=1;direction=north;" vertex="1" parent="1">
          <mxGeometry x="555" y="240" width="60" height="30" as="geometry" />
        </mxCell>
        <mxCell id="2pH5AYN5q7OZ5gWq26MX-18" value="Paciente" style="rounded=0;whiteSpace=wrap;html=1;" vertex="1" parent="1">
          <mxGeometry x="405" y="320" width="120" height="60" as="geometry" />
        </mxCell>
        <mxCell id="2pH5AYN5q7OZ5gWq26MX-19" value="Medico" style="rounded=0;whiteSpace=wrap;html=1;" vertex="1" parent="1">
          <mxGeometry x="645" y="320" width="120" height="60" as="geometry" />
        </mxCell>
        <mxCell id="2pH5AYN5q7OZ5gWq26MX-20" value="" style="endArrow=none;html=1;rounded=0;exitX=-0.007;exitY=-0.009;exitDx=0;exitDy=0;entryX=0.5;entryY=0;entryDx=0;entryDy=0;exitPerimeter=0;" edge="1" parent="1" source="2pH5AYN5q7OZ5gWq26MX-17" target="2pH5AYN5q7OZ5gWq26MX-18">
          <mxGeometry width="50" height="50" relative="1" as="geometry">
            <mxPoint x="535" y="130" as="sourcePoint" />
            <mxPoint x="450" y="80" as="targetPoint" />
            <Array as="points">
              <mxPoint x="465" y="270" />
            </Array>
          </mxGeometry>
        </mxCell>
        <mxCell id="2pH5AYN5q7OZ5gWq26MX-21" value="" style="endArrow=none;html=1;rounded=0;exitX=0;exitY=0;exitDx=0;exitDy=0;entryX=0.5;entryY=1;entryDx=0;entryDy=0;" edge="1" parent="1">
          <mxGeometry width="50" height="50" relative="1" as="geometry">
            <mxPoint x="700" y="320" as="sourcePoint" />
            <mxPoint x="615" y="270" as="targetPoint" />
            <Array as="points">
              <mxPoint x="700" y="270" />
            </Array>
          </mxGeometry>
        </mxCell>
        <mxCell id="2pH5AYN5q7OZ5gWq26MX-22" value="especialidad" style="ellipse;whiteSpace=wrap;html=1;aspect=fixed;" vertex="1" parent="1">
          <mxGeometry x="765" y="220" width="70" height="70" as="geometry" />
        </mxCell>
        <mxCell id="2pH5AYN5q7OZ5gWq26MX-23" value="" style="endArrow=none;html=1;rounded=0;exitX=1;exitY=0;exitDx=0;exitDy=0;entryX=0;entryY=1;entryDx=0;entryDy=0;" edge="1" parent="1" source="2pH5AYN5q7OZ5gWq26MX-19" target="2pH5AYN5q7OZ5gWq26MX-22">
          <mxGeometry width="50" height="50" relative="1" as="geometry">
            <mxPoint x="655" y="130" as="sourcePoint" />
            <mxPoint x="779" y="71" as="targetPoint" />
          </mxGeometry>
        </mxCell>
        <mxCell id="2pH5AYN5q7OZ5gWq26MX-24" value="direccion" style="ellipse;whiteSpace=wrap;html=1;aspect=fixed;" vertex="1" parent="1">
          <mxGeometry x="320" y="150" width="50" height="50" as="geometry" />
        </mxCell>
        <mxCell id="2pH5AYN5q7OZ5gWq26MX-25" value="poblacion" style="ellipse;whiteSpace=wrap;html=1;aspect=fixed;" vertex="1" parent="1">
          <mxGeometry x="320" y="210" width="50" height="50" as="geometry" />
        </mxCell>
        <mxCell id="2pH5AYN5q7OZ5gWq26MX-26" value="provincia" style="ellipse;whiteSpace=wrap;html=1;aspect=fixed;" vertex="1" parent="1">
          <mxGeometry x="320" y="270" width="50" height="50" as="geometry" />
        </mxCell>
        <mxCell id="2pH5AYN5q7OZ5gWq26MX-27" value="codigoPostal" style="ellipse;whiteSpace=wrap;html=1;aspect=fixed;" vertex="1" parent="1">
          <mxGeometry x="420" y="140" width="70" height="70" as="geometry" />
        </mxCell>
        <mxCell id="2pH5AYN5q7OZ5gWq26MX-28" value="fechaNacim" style="ellipse;whiteSpace=wrap;html=1;aspect=fixed;" vertex="1" parent="1">
          <mxGeometry x="310" y="70" width="70" height="70" as="geometry" />
        </mxCell>
        <mxCell id="2pH5AYN5q7OZ5gWq26MX-29" value="" style="endArrow=none;html=1;rounded=0;exitX=0;exitY=0;exitDx=0;exitDy=0;" edge="1" parent="1" source="2pH5AYN5q7OZ5gWq26MX-18" target="2pH5AYN5q7OZ5gWq26MX-26">
          <mxGeometry width="50" height="50" relative="1" as="geometry">
            <mxPoint x="435" y="270" as="sourcePoint" />
            <mxPoint x="350" y="220" as="targetPoint" />
          </mxGeometry>
        </mxCell>
        <mxCell id="2pH5AYN5q7OZ5gWq26MX-30" value="" style="endArrow=none;html=1;rounded=0;exitX=0;exitY=0;exitDx=0;exitDy=0;entryX=1;entryY=0.5;entryDx=0;entryDy=0;" edge="1" parent="1" source="2pH5AYN5q7OZ5gWq26MX-18" target="2pH5AYN5q7OZ5gWq26MX-25">
          <mxGeometry width="50" height="50" relative="1" as="geometry">
            <mxPoint x="420" y="305.44" as="sourcePoint" />
            <mxPoint x="383" y="290.44" as="targetPoint" />
          </mxGeometry>
        </mxCell>
        <mxCell id="2pH5AYN5q7OZ5gWq26MX-31" value="" style="endArrow=none;html=1;rounded=0;exitX=0;exitY=0;exitDx=0;exitDy=0;entryX=1;entryY=0.5;entryDx=0;entryDy=0;" edge="1" parent="1" source="2pH5AYN5q7OZ5gWq26MX-18" target="2pH5AYN5q7OZ5gWq26MX-24">
          <mxGeometry width="50" height="50" relative="1" as="geometry">
            <mxPoint x="665" y="140" as="sourcePoint" />
            <mxPoint x="789" y="81" as="targetPoint" />
          </mxGeometry>
        </mxCell>
        <mxCell id="2pH5AYN5q7OZ5gWq26MX-32" value="" style="endArrow=none;html=1;rounded=0;entryX=1;entryY=1;entryDx=0;entryDy=0;" edge="1" parent="1" target="2pH5AYN5q7OZ5gWq26MX-28">
          <mxGeometry width="50" height="50" relative="1" as="geometry">
            <mxPoint x="420" y="320" as="sourcePoint" />
            <mxPoint x="387" y="182" as="targetPoint" />
          </mxGeometry>
        </mxCell>
        <mxCell id="2pH5AYN5q7OZ5gWq26MX-33" value="" style="endArrow=none;html=1;rounded=0;exitX=0.25;exitY=0;exitDx=0;exitDy=0;entryX=0.5;entryY=1;entryDx=0;entryDy=0;" edge="1" parent="1" source="2pH5AYN5q7OZ5gWq26MX-18" target="2pH5AYN5q7OZ5gWq26MX-27">
          <mxGeometry width="50" height="50" relative="1" as="geometry">
            <mxPoint x="470" y="320" as="sourcePoint" />
            <mxPoint x="435" y="235" as="targetPoint" />
          </mxGeometry>
        </mxCell>
        <mxCell id="2pH5AYN5q7OZ5gWq26MX-35" value="Ingreso" style="rounded=0;whiteSpace=wrap;html=1;" vertex="1" parent="1">
          <mxGeometry x="524" y="580" width="120" height="60" as="geometry" />
        </mxCell>
        <mxCell id="2pH5AYN5q7OZ5gWq26MX-36" value="" style="endArrow=none;html=1;rounded=0;exitX=0;exitY=0.5;exitDx=0;exitDy=0;entryX=0.5;entryY=1;entryDx=0;entryDy=0;" edge="1" parent="1" source="2pH5AYN5q7OZ5gWq26MX-34" target="2pH5AYN5q7OZ5gWq26MX-18">
          <mxGeometry width="50" height="50" relative="1" as="geometry">
            <mxPoint x="320" y="510" as="sourcePoint" />
            <mxPoint x="340" y="400" as="targetPoint" />
          </mxGeometry>
        </mxCell>
        <mxCell id="2pH5AYN5q7OZ5gWq26MX-37" value="" style="endArrow=none;html=1;rounded=0;exitX=0.5;exitY=0;exitDx=0;exitDy=0;entryX=0.5;entryY=1;entryDx=0;entryDy=0;" edge="1" parent="1" source="2pH5AYN5q7OZ5gWq26MX-35" target="2pH5AYN5q7OZ5gWq26MX-34">
          <mxGeometry width="50" height="50" relative="1" as="geometry">
            <mxPoint x="470" y="600" as="sourcePoint" />
            <mxPoint x="465" y="380" as="targetPoint" />
          </mxGeometry>
        </mxCell>
        <mxCell id="2pH5AYN5q7OZ5gWq26MX-34" value="atiendre" style="rhombus;whiteSpace=wrap;html=1;" vertex="1" parent="1">
          <mxGeometry x="544" y="440" width="80" height="80" as="geometry" />
        </mxCell>
        <mxCell id="2pH5AYN5q7OZ5gWq26MX-38" value="" style="endArrow=none;html=1;rounded=0;exitX=1;exitY=0.5;exitDx=0;exitDy=0;entryX=0.5;entryY=1;entryDx=0;entryDy=0;" edge="1" parent="1" source="2pH5AYN5q7OZ5gWq26MX-34" target="2pH5AYN5q7OZ5gWq26MX-19">
          <mxGeometry width="50" height="50" relative="1" as="geometry">
            <mxPoint x="565" y="490" as="sourcePoint" />
            <mxPoint x="475" y="390" as="targetPoint" />
          </mxGeometry>
        </mxCell>
        <mxCell id="2pH5AYN5q7OZ5gWq26MX-39" value="fechaIN" style="ellipse;whiteSpace=wrap;html=1;aspect=fixed;" vertex="1" parent="1">
          <mxGeometry x="560" y="350" width="50" height="50" as="geometry" />
        </mxCell>
        <mxCell id="2pH5AYN5q7OZ5gWq26MX-40" value="" style="endArrow=none;html=1;rounded=0;exitX=0.5;exitY=0;exitDx=0;exitDy=0;entryX=0.5;entryY=1;entryDx=0;entryDy=0;" edge="1" parent="1" source="2pH5AYN5q7OZ5gWq26MX-34" target="2pH5AYN5q7OZ5gWq26MX-39">
          <mxGeometry width="50" height="50" relative="1" as="geometry">
            <mxPoint x="645" y="490" as="sourcePoint" />
            <mxPoint x="715" y="390" as="targetPoint" />
          </mxGeometry>
        </mxCell>
        <mxCell id="2pH5AYN5q7OZ5gWq26MX-41" value="habitaciones" style="ellipse;whiteSpace=wrap;html=1;aspect=fixed;" vertex="1" parent="1">
          <mxGeometry x="427.5" y="660" width="75" height="75" as="geometry" />
        </mxCell>
        <mxCell id="2pH5AYN5q7OZ5gWq26MX-42" value="codigo" style="ellipse;whiteSpace=wrap;html=1;aspect=fixed;" vertex="1" parent="1">
          <mxGeometry x="555" y="672.5" width="50" height="50" as="geometry" />
        </mxCell>
        <mxCell id="2pH5AYN5q7OZ5gWq26MX-43" value="cama" style="ellipse;whiteSpace=wrap;html=1;aspect=fixed;" vertex="1" parent="1">
          <mxGeometry x="645" y="660" width="75" height="75" as="geometry" />
        </mxCell>
        <mxCell id="2pH5AYN5q7OZ5gWq26MX-44" value="" style="endArrow=none;html=1;rounded=0;exitX=1;exitY=0;exitDx=0;exitDy=0;entryX=0;entryY=1;entryDx=0;entryDy=0;" edge="1" parent="1" source="2pH5AYN5q7OZ5gWq26MX-41" target="2pH5AYN5q7OZ5gWq26MX-35">
          <mxGeometry width="50" height="50" relative="1" as="geometry">
            <mxPoint x="470" y="590" as="sourcePoint" />
            <mxPoint x="391" y="490" as="targetPoint" />
          </mxGeometry>
        </mxCell>
        <mxCell id="2pH5AYN5q7OZ5gWq26MX-45" value="" style="endArrow=none;html=1;rounded=0;exitX=0.5;exitY=0;exitDx=0;exitDy=0;entryX=0.5;entryY=1;entryDx=0;entryDy=0;" edge="1" parent="1" source="2pH5AYN5q7OZ5gWq26MX-42" target="2pH5AYN5q7OZ5gWq26MX-35">
          <mxGeometry width="50" height="50" relative="1" as="geometry">
            <mxPoint x="544" y="672.5" as="sourcePoint" />
            <mxPoint x="576" y="641.5" as="targetPoint" />
          </mxGeometry>
        </mxCell>
        <mxCell id="2pH5AYN5q7OZ5gWq26MX-46" value="" style="endArrow=none;html=1;rounded=0;exitX=0;exitY=0;exitDx=0;exitDy=0;entryX=1;entryY=1;entryDx=0;entryDy=0;" edge="1" parent="1" source="2pH5AYN5q7OZ5gWq26MX-43" target="2pH5AYN5q7OZ5gWq26MX-35">
          <mxGeometry width="50" height="50" relative="1" as="geometry">
            <mxPoint x="620" y="683" as="sourcePoint" />
            <mxPoint x="624" y="650" as="targetPoint" />
          </mxGeometry>
        </mxCell>
        <mxCell id="2pH5AYN5q7OZ5gWq26MX-47" value="realiza" style="rhombus;whiteSpace=wrap;html=1;" vertex="1" parent="1">
          <mxGeometry x="390" y="470" width="90" height="80" as="geometry" />
        </mxCell>
        <mxCell id="2pH5AYN5q7OZ5gWq26MX-48" value="" style="endArrow=none;html=1;rounded=0;exitX=0.5;exitY=0;exitDx=0;exitDy=0;entryX=0.25;entryY=1;entryDx=0;entryDy=0;" edge="1" parent="1" source="2pH5AYN5q7OZ5gWq26MX-47" target="2pH5AYN5q7OZ5gWq26MX-18">
          <mxGeometry width="50" height="50" relative="1" as="geometry">
            <mxPoint x="326.92" y="429.38" as="sourcePoint" />
            <mxPoint x="289.92" y="414.38" as="targetPoint" />
          </mxGeometry>
        </mxCell>
        <mxCell id="2pH5AYN5q7OZ5gWq26MX-49" value="" style="endArrow=none;html=1;rounded=0;entryX=0.5;entryY=1;entryDx=0;entryDy=0;" edge="1" parent="1" target="2pH5AYN5q7OZ5gWq26MX-47">
          <mxGeometry width="50" height="50" relative="1" as="geometry">
            <mxPoint x="520" y="600" as="sourcePoint" />
            <mxPoint x="415" y="390" as="targetPoint" />
            <Array as="points">
              <mxPoint x="435" y="600" />
            </Array>
          </mxGeometry>
        </mxCell>
        <mxCell id="2pH5AYN5q7OZ5gWq26MX-50" value="(0,n)" style="text;html=1;align=center;verticalAlign=middle;resizable=0;points=[];autosize=1;strokeColor=none;fillColor=none;" vertex="1" parent="1">
          <mxGeometry x="574" y="550" width="50" height="30" as="geometry" />
        </mxCell>
        <mxCell id="2pH5AYN5q7OZ5gWq26MX-51" value="(0,1)" style="text;html=1;align=center;verticalAlign=middle;resizable=0;points=[];autosize=1;strokeColor=none;fillColor=none;" vertex="1" parent="1">
          <mxGeometry x="700" y="380" width="50" height="30" as="geometry" />
        </mxCell>
        <mxCell id="2pH5AYN5q7OZ5gWq26MX-52" value="(0,n)" style="text;html=1;align=center;verticalAlign=middle;resizable=0;points=[];autosize=1;strokeColor=none;fillColor=none;" vertex="1" parent="1">
          <mxGeometry x="390" y="384" width="50" height="30" as="geometry" />
        </mxCell>
        <mxCell id="2pH5AYN5q7OZ5gWq26MX-55" value="(0,n)" style="text;html=1;align=center;verticalAlign=middle;resizable=0;points=[];autosize=1;strokeColor=none;fillColor=none;" vertex="1" parent="1">
          <mxGeometry x="480" y="570" width="50" height="30" as="geometry" />
        </mxCell>
        <mxCell id="2pH5AYN5q7OZ5gWq26MX-56" value="(0,n)" style="text;html=1;align=center;verticalAlign=middle;resizable=0;points=[];autosize=1;strokeColor=none;fillColor=none;" vertex="1" parent="1">
          <mxGeometry x="470" y="380" width="50" height="30" as="geometry" />
        </mxCell>
      </root>
    </mxGraphModel>
  </diagram>
</mxfile>
